PathFileType	4	(X/Y/Z)	0_1_33_p1_0-333.trc
DataRate	CameraRate	NumFrames	NumMarkers	Units	OrigDataRate	OrigDataStartFrame	OrigNumFrames
60	60	6	27	m	60	208	333
Frame#	Time	RHip			RKnee			RAnkle			RBigToe			RSmallToe			RHeel			LHip			LKnee			LAnkle			LBigToe			LSmallToe			LHeel			Neck			Head			Nose			RShoulder			RElbow			RWrist			RThumb			RIndex			RPinky			LShoulder			LElbow			LWrist			LThumb			LIndex			LPinky		
		X1	Y1	Z1	X2	Y2	Z2	X3	Y3	Z3	X4	Y4	Z4	X5	Y5	Z5	X6	Y6	Z6	X7	Y7	Z7	X8	Y8	Z8	X9	Y9	Z9	X10	Y10	Z10	X11	Y11	Z11	X12	Y12	Z12	X13	Y13	Z13	X14	Y14	Z14	X15	Y15	Z15	X16	Y16	Z16	X17	Y17	Z17	X18	Y18	Z18	X19	Y19	Z19	X20	Y20	Z20	X21	Y21	Z21	X22	Y22	Z22	X23	Y23	Z23	X24	Y24	Z24	X25	Y25	Z25	X26	Y26	Z26	X27	Y27	Z27
209	3.4833333333333334	0.14954207312867873	0.218828695005727	0.05247094769972601	0.11509307772671579	0.15513850184919908	-0.31859953886799053	0.1528904948587631	0.20602043643136958	-0.762678949778522	0.16579660101690288	0.055057765826766636	-0.7854092830120716	0.09866623271575405	0.08453612297198237	-0.7977354946857719	0.16526927198132293	0.2282851893606866	-0.8103226651074606	0.33125181948570726	0.16809620338256345	0.05165159455086576	0.3277513272152153	0.12024760608930801	-0.31625885705637896	0.3101123488008132	0.20877899728690985	-0.7338253013216829	0.3054207346706085	0.046536382295772734	-0.7792127085594072	0.3516866559943772	0.07411495569479906	-0.7704065968826559	0.3222091959769537	0.28593076846188664	-0.8286285045909476	0.3119072128309696	0.34311176997725745	0.502472078850358	0.29090744860200735	0.3495736129725937	0.762926278327657	0.25236513839714614	0.2560179615126174	0.6362588224833368	0.1843350497275536	0.3681201279247661	0.4587619273856375	0.08702641843841585	0.2709551744149018	0.2492059201009775	0.27003360336572424	0.11644640212762586	0.2864404735618745	0.325136780637619	0.030416626554303414	0.35008251740311297				0.3531196631498374	0.09358800364070907	0.3041946808171327	0.4343651118547918	0.2208486878413091	0.4792822395453734	0.32266728695197483	0.03959082184214589	0.3153755280301013	0.14839348878726702	0.1908878437103774	0.31457575730250986	0.10300640916256636	0.2470782384998234	0.3069388842169174	0.08869070955390328	0.29106268960594156	0.28189884443586993	0.09478521208270049	0.23452607498466232	0.2812917494161005
210	3.5	0.15074233914609025	0.21729384922769882	0.05436938185540807	0.1148010301208999	0.15501163560273168	-0.31787959768644536	0.15273638169024656	0.20634035184159133	-0.7632008776125156	0.16580391702489966	0.05490516531101788	-0.7851982620769192	0.09865599249837176	0.08443597610952336	-0.7981676275883812	0.1640356758005373	0.23036011575583776	-0.8103842363963099	0.3310898295584255	0.16840353204900502	0.0542690286828708	0.32789362625185	0.12051934710383366	-0.31600817408162707	0.30996628028404716	0.2112383830199423	-0.7361305308259464	0.3036340202645427	0.04708824953376632	-0.7786075970957246	0.35162077913512824	0.07412977163911333	-0.7704748590530328	0.3221636574305856	0.2856900993324439	-0.8298009809426463	0.3120034909308075	0.3419086216786916	0.5041222015572183	0.29247638134636905	0.35381459146097993	0.7656252910504137	0.2529291566701512	0.2577139712517488	0.6363298480811153	0.18553128047312317	0.3716883441643339	0.45787632638182296	0.0878343915907102	0.26671148763983576	0.25061636116611935	0.27121064862522815	0.11821180198986186	0.2868413604533591	0.33109555567234433	0.0395822348585504	0.3488304102774039				0.355846236784882	0.0865706942437521	0.3075044680808064	0.4366103327397102	0.22487564123131723	0.4782110475730426	0.3246079526512956	0.03859409998743421	0.3165509048200224	0.1496583227614442	0.19059777088868257	0.3153691944400675	0.10566225595362609	0.2512418255314903	0.3077269490651192	0.08979546418495862	0.2907779202339975	0.2843682054730847	0.0958469715611685	0.2395175630370771	0.28302773587704055
211	3.5166666666666666	0.1510855254941489	0.21708498193402553	0.055791266909605446	0.11480644240766733	0.15504597394178296	-0.31770672468212396	0.15280608503477547	0.2064703592814443	-0.7632466327829438	0.1660405198826636	0.053681795678571134	-0.7842609480121253	0.09875377126445571	0.08444051035114972	-0.7981784575118049	0.16393630320188632	0.2346436583418475	-0.8118232815432934	0.33088634379947274	0.1689770228394702	0.055759874267512416	0.32793224417883654	0.12088351483207571	-0.3161064911698448	0.30927519174625023	0.2132586930632457	-0.7388427753658925	0.3023213358785799	0.047502627436110986	-0.778339732121893	0.35156260739575357	0.07412346602860481	-0.7706081188149615	0.3220895663609716	0.28485992430068613	-0.8316282846969376	0.3125660752993788	0.3387739706143442	0.5063754890361907	0.2943662857467771	0.35867059838458826	0.7684823452722647	0.25304562869556524	0.2581101445247855	0.6372860671477254	0.18714611320056776	0.37633312978192635	0.4567472632138792	0.08856508639626116	0.263393512245388	0.25173401350077346	0.27310318559516605	0.12054718939135002	0.2862620397672551	0.33530013000775805	0.0455354035643989	0.34778300566037484				0.3597092160963457	0.08498308269337555	0.3071162213072525	0.4386128246377554	0.2277008588984801	0.4773933682287283	0.32679521008923457	0.03900873212959071	0.3166912210876066	0.1503057345796808	0.19033195329594738	0.3158364719022758	0.10840411794686483	0.25422544239534406	0.308710225928267	0.09054206857854906	0.28828123674754025	0.28756366329930855	0.09667233961000417	0.24708588610702512	0.28311543482766827
212	3.533333333333333	0.1509649508441015	0.21744444792005085	0.05657534135847009	0.11580967828558554	0.15620870685149246	-0.31856674006913777	0.15291416326824558	0.20649267228438303	-0.762716007316768	0.1666329086850104	0.051827070600861676	-0.7829304742542118	0.09888300458170494	0.08442676917428973	-0.7980553502871849	0.16500308672371028	0.23987651190987322	-0.814341987970499	0.33072513819250765	0.16967383256028318	0.056184232304560704	0.3278598886249675	0.12125677030103553	-0.3160224217484231	0.3088395690404422	0.214209957571095	-0.7408053620907532	0.30180822941767227	0.04777437904053961	-0.777529492712235	0.35149133708031993	0.07406951451222586	-0.7706681963403392	0.32215257937620256	0.283753079803084	-0.832785111266825	0.31343871398728335	0.33456739773805605	0.5087794641842064	0.29580237032442436	0.3621434003199321	0.7702153799697689	0.2530701386292423	0.2580478337451383	0.6389662613334463	0.18837283674112193	0.37991227731308796	0.4559198126116242	0.08925456329116083	0.26087456293046973	0.2529611169676723	0.2754773477987752	0.12016207979594082	0.2863699701667251	0.33819016539811764	0.046630645747031185	0.3475400694964149				0.36300441072777806	0.08420999791735893	0.30673227297245	0.43949401235941526	0.22870999369855688	0.4770212650817143	0.3282120157216513	0.040283944377763545	0.31632021976498115	0.150718796890597	0.18918372075040446	0.3167747288470959	0.11014234201341695	0.25542561515292805	0.30946582272012674	0.09162929240252965	0.28563876128762794	0.2903187078124108	0.09719906481100851	0.2535772111861132	0.28288421743183023
213	3.55	0.1508160211172987	0.21777681214751987	0.05682211603418607	0.11815779757305742	0.15939253247656496	-0.32009895763075485	0.1530007339199082	0.2064740333604694	-0.7618424116516713	0.16768499854008345	0.0513781120719926	-0.7827188780731067	0.09898874492225396	0.08435637121759432	-0.7979423803162066	0.16619334838290906	0.24373775429078598	-0.8165508055843766	0.3306622487845655	0.17017718370926269	0.05606777367049498	0.3277661856297216	0.12151926626864695	-0.3152745849414722	0.3093052103668618	0.21406897675609277	-0.7411022301794075	0.3018805477828975	0.04806841528624134	-0.7755726516722331	0.3514174538568914	0.07398056028753643	-0.7706465898274548	0.32244369202126266	0.28262467481910625	-0.832379478678399	0.3141712429935407	0.3312218285818174	0.5110927674672887	0.2963963456508145	0.36339502444402666	0.7704648754838633	0.2531451983095414	0.25791527745807824	0.6409218231059449	0.18886195510716783	0.38132879922627194	0.45564718808097715	0.09020592815830449	0.25770957123589433	0.25499266026838896	0.2780037133979823	0.11671013102499823	0.28756069644735066	0.3404076452649347	0.04315802110413752	0.3483686615221051				0.3655997189653468	0.08307181567842065	0.30763694010059806	0.439217385662605	0.2288539901179948	0.47700118158580207	0.3287537298406235	0.04141028718927377	0.31597392805236013	0.1514011823732478	0.18646418739897397	0.31875302761114854	0.1107274669353442	0.2555053802269592	0.30945065486354123	0.09295264611619852	0.2849144171208019	0.2912271142068161	0.09756107635888833	0.25644303511171485	0.2836040732777895
214	3.566666666666667	0.1507842679948405	0.21796589596154273	0.056923928312902425	0.12107887662411614	0.16380022846124784	-0.32135622800276886	0.15310112757654273	0.20647203703532332	-0.7613579011124897	0.16925821518321238	0.05402309032119853	-0.7848587051683278	0.09907093791114183	0.08424787101597041	-0.7978842318380815	0.16685186278862255	0.24521054640705606	-0.8176358947077098	0.3306625006707387	0.17028247311296069	0.055579409903458304	0.32779999756264055	0.1219023401538376	-0.31454599640705017	0.3103684179191601	0.21492142401269174	-0.7406612659201401	0.3023902355232087	0.048407559494068005	-0.7730605846538746	0.3513752470269803	0.07391270371717074	-0.7706044978195765	0.3228043881830664	0.2817008488723126	-0.8311401304500502	0.31454859304068944	0.3297070127214865	0.5133045323992528	0.29645088296480787	0.36329886428548325	0.7698697096262521	0.25326378104398106	0.25780307773246136	0.6426078116612104	0.18895256489767517	0.38096658358762125	0.4557957267388437	0.09136447333780648	0.2538631535715744	0.25755087503978225	0.2801864079353937	0.11295000999427393	0.28889747029199414	0.3431541195390923	0.038887659228089365	0.3494621082693961				0.368505379244175	0.0829448237756849	0.30906197455219137	0.4385237780738383	0.2289621446064871	0.47740452287163326	0.3292480831185918	0.04283536639392377	0.31541794526008	0.15242182437919755	0.18313099586889758	0.32119342522562244	0.11080665776110409	0.25494436244628643	0.3090310891152444	0.09395572160400419	0.28580942150310235	0.29036952075844646	0.09786627629315023	0.2565649392008084	0.28505960067938596
